<svg xmlns="http://www.w3.org/2000/svg" viewBox="0 0 350 350"><defs></defs><g id="Layer_1_copy_9" data-name="Layer 1 copy 9"><path class="cls-1" d="M291.74,51.82s-23.06,8.72-23.8,27.31,12.92,104,12.92,104l-1.1.09a1,1,0,0,1-1.07-.85c-4.16-26.68-7.5-55.7-19.42-80.19-5.1-10.48-11.53-20.5-20.27-28.2a52.12,52.12,0,0,0-23.84-11.66c-7.86-1.67-15.86-1.86-23.86-1.88s-15.85-.57-23.6,1a19.22,19.22,0,0,0-6.54,2.48C153.1,69,153.74,80,153.73,88.27V97q0,15.64,0,31.28,0,15,0,29.92c0,4.45,0,10.9,0,15.36,18.44.11,37.32,2.29,53.27-8.89a29.49,29.49,0,0,0,12.8-20.42l3-26.72a1,1,0,0,1,1-.89h1.17l-.1,117.12v.05h-1.18a1,1,0,0,1-1-.89l-3-23.72c-1.07-8.47-5.88-15.57-12.79-20.42-15.95-11.18-34.84-9-53.27-8.89,0,8.75,0,19.49-.05,28.24l-.05,27c0,11.42.31,24.23,6.63,34.14,4.48,7,11.38,12.08,19,15.21,6.11,2.51,12.75,3.71,19.16,5.43,4.16,1.13,4.67.34,4.37,7.15-39.47-.08-77.66-1-118.57.09-.06-1.29-.51-3.41.28-4.58s3.16-1.7,4.42-2.2c4.16-1.67,8.66-3,12.15-5.91,3.69-3.09,4.63-8,4.63-12.59V78.28c0-4.15-.75-8.48-3.67-11.61a15.81,15.81,0,0,0-5.59-3.62L89.72,60.2a18,18,0,0,1-4.23-2.05c-2-1.67-1.52-4.84-1.4-7.15l207.65.82h0"/></g></svg>