<svg xmlns="http://www.w3.org/2000/svg" viewBox="0 0 350 350"><defs><style>.cls-1{stroke:#000;stroke-miterlimit:10;}</style></defs><g id="Layer_1_copy_4" data-name="Layer 1 copy 4"><path class="cls-1" d="M277.46,169.52c.08-.51,1.07-.82,1.07-.82l1.11.08S266,252.44,266.74,270.66s23.8,26.78,23.8,26.78l-207.48.27c-.12-2.27-.56-4.09,1.48-5.73a18.09,18.09,0,0,1,4.24-2l6.58-2.79a15.94,15.94,0,0,0,5.59-3.56c2.92-3.07,3.71-7.31,3.66-11.37v-.15l-.15-6.9-.06-189.62c0-4.47-.94-9.32-4.62-12.35-3.5-2.87-8-4.15-12.16-5.79-1.25-.5-3.62-1-4.42-2.16s-.34-2.46-.28-3.73c40.91,0,79.1.08,118.57,0,.3,6.68-.2,5.25-4.37,6.35-6.41,1.69-13,2.87-19.15,5.32-7.64,3.07-14.54,8-19,14.9,0,0-6.59,12.9-6.58,17.63s.56,169.46.56,169.46c0,4.06,1.13,14.33,4,17.4a15.93,15.93,0,0,0,5.6,3.56l13.57,1.39,13.87.33c8,0,16.09.89,23.94-.74a52.68,52.68,0,0,0,23.84-11.42c8.74-7.56,15.17-17.37,20.27-27.64,11.91-24,19.39-78.59,19.39-78.59"/></g></svg>