<svg xmlns="http://www.w3.org/2000/svg" viewBox="0 0 350 350"><defs><style>.cls-1{stroke:#000;stroke-miterlimit:10;}</style></defs><g id="Layer_1_copy_3" data-name="Layer 1 copy 3"><path class="cls-1" d="M186.8,54.11s16.63,2.66,33.81,24.27c19,23.94,24.06,56.42,24.06,56.42s8.86,38.47-.56,83.8-26.53,61.55-35,67.84c-16.13,11.93-31.53,10.19-31.53,10.19-22.7.28-40.92-11.42-54-31.19-14.92-22.57-23-54.74-23-91,0-22.81,4.78-51.47,11.65-69.65,8.47-22.39,20.73-37.29,35.39-45.12C165.24,50.21,186.8,54.11,186.8,54.11ZM88.37,82.59c-2.21,2-40.22,32-40.22,97.6,0,53.82,46.56,116.21,121,117.81,0,0,11.93.06,22.84-.28,8.05-.26,14.6-.48,20.29-2.41,13.41-4.55,21.95-7.32,44.67-24.5s34.7-49.44,34.7-49.44,8.64-18.06,7.64-54.2-15.51-57-15.51-57-7.21-13.41-27.61-31.7-51.32-24.94-51.32-24.94a141.69,141.69,0,0,0-27.38-2.44C164.74,51.23,122.9,51.59,88.37,82.59Z"/></g></svg>