<svg id="Layer_1_copy" data-name="Layer 1 copy" xmlns="http://www.w3.org/2000/svg" viewBox="0 0 350 350"><defs><style>.cls-1{stroke:#000;stroke-miterlimit:10;}</style></defs><path class="cls-1" d="M148.36,250.53c-.45,13.32,9.3,28.34,22.28,33.4,6.11,2.38,12.75,3.51,19.16,5.15,4.17,1.07,4.67,2.22,4.38,8.72-39.47,0-72.66-.86-113.56.2-.28-4.89-.25-6.42,3.23-7.78,2.87-1.13,5.66-2.45,8.56-3.51,7.13-2.61,10.32-7.45,10.24-14.75L102,175.72s1.71-85-1.53-102.42S73.22,51.52,73.22,51.52L191,51.11c28.5-.1,56.48,4.43,77.3,25.58a68.91,68.91,0,0,1,12.38,16.88c7.92,16.19,7.62,33.57,1.1,50.77a67.42,67.42,0,0,1-39.68,39,116.13,116.13,0,0,1-33,7.07s-29.71,2.66-51.66,2.44c-.12,0-10.5-.34-10.49-.22l1.18,51.21Zm1.07-173.34c-.71,6-.44,12.15-.57,18.1l-.62,29.2L147.47,161c0,.27-.66,23.24-.5,23.28,0,0,33.31,5.32,57.47-4,22.79-8.78,29.93-38.58,30.82-45.23s.47-29.29-2.2-40.9c-5.16-22.45-24.55-39.05-47.68-39.79-11.14-.36-27.3-.24-32.86,11.48A36.78,36.78,0,0,0,149.43,77.19Z"/></svg>