<svg xmlns="http://www.w3.org/2000/svg" viewBox="0 0 350 350"><defs><style>.cls-1{stroke:#000;stroke-miterlimit:10;}</style></defs><g id="Layer_1_copy_8" data-name="Layer 1 copy 8"><path class="cls-1" d="M139.36,173.77l-.13-84.08c.11-7.17-.14-14.26,4.41-20.38,3.87-5.22,9.23-9.14,16.26-9.12,0,0,17.91,0,26.67,0,12,.86,20.1,7.69,25.14,18.13a83.07,83.07,0,0,1,7.66,49.44c-1.46,9.42-4.93,18.81-9.06,27.47-7.05,14.77-21.46,17.35-35.75,18.51h-35.2M72.55,297.47l104.69,0h0s0-2.34-4.17-3.46c-6.42-1.73-13.06-2.93-19.16-5.43-2.47-1-5-1.85-7.43-3.09-2.55-1.32-5.92-4.37-6.66-7.26a20.32,20.32,0,0,1-.13-4.68c0-1.73,0-3.47,0-5.2V180.66c9.8.13,31.17-.64,40.95.07,19,1.38,32,16.35,31.64,35.57-.21,12.62,0,25.24,3.51,37.76,5.89,13.9,11,23.33,22.14,33.47,9,8.24,21.54,10,28,10h39.3c0-2.16.19-2.67-.06-3.26a2.75,2.75,0,0,0-1.45-1.49c-11.23-3.61-16.62-9.34-19.61-18.91C277.26,252,271.73,229.74,267,207.36c-2.49-11.87-9.18-19.31-19-24.24-8.39-4.2-18.6-4.93-29.08-7h0c4.87-1.06,11.13-3.85,14.3-5.27,5.64-2.53,13.66-7.14,16.18-8.64,9.5-5.69,15.19-12.07,19-23.2,8.23-24.15,7.34-47.28-8.89-68.41q-1.61-2.09-3.36-4.07a44,44,0,0,0-14.78-11.19,45.4,45.4,0,0,0-19.66-3.94c-2.15,0-4.27.07-6.41.07H195.93l-12.79,0-14.13,0h-15l-15.22,0-15,0-14.13,0H97l-10.88,0H70.22S93.37,61.23,94,79.82V272.76c0,4.56-.94,9.51-4.62,12.6-3.5,2.92-8,4.23-12.16,5.91-1.25.5-3.61,1-4.41,2.2s-.28,4-.28,4"/></g></svg>