<svg xmlns="http://www.w3.org/2000/svg" viewBox="0 0 350 350"><defs><style>.cls-1{stroke:#000;stroke-miterlimit:10;}</style></defs><g id="Layer_1_copy_7" data-name="Layer 1 copy 7"><line class="cls-1" x1="225.87" y1="51.28" x2="308.78" y2="51.28"/><path class="cls-1" d="M225.87,51.28l9.42,3.58s26.83,7.62,30.08,26S268,196.34,268,196.34l-.37,11.17c-.86,13.22,1.23,26.53-3.36,39.69-5.56,15.91-13.23,30.11-30.32,34.48-19.75,5.05-39.84,6.26-59.92-1.12-13-4.78-21.86-12.82-25.17-25.82a124.78,124.78,0,0,1-3.74-29.05l1.72-148.06c0-8.33,6-12.08,13.64-15.22,6.1-2.5,12.75-3.7,19.16-5.42,4.16-1.13,4.66.66,4.36-6.15l-117.81.43s24,4.53,27.26,22.85S95,181.6,95,181.6c0,20-.35,34.39.4,54.38.5,13.35,4.9,26,14.15,36,16.46,17.71,37,25.2,61.43,25.16,14.55,0,29,.61,43.56.1,17.06-.6,30.19-9.41,42.89-19.29,2.57-2,4.54-4.79,6.69-7.29,11.05-12.87,13.75-28.79,14.84-44.73,1.16-16.86.59-33.85.58-50.78l0,.12c0-18.51-.37-36.6-.36-55.11,0-12.57-.38-25.21.79-37.69.53-5.6,1.94-11.29,5.26-15.93,5.37-7.52,15.68-11,23.56-15.27"/></g></svg>